<svg xmlns="http://www.w3.org/2000/svg" viewBox="-247.3 252.6 1940.6 2026.8">
<path fill="none" stroke="#f9e793" d="M-244.2,2280h1938.1V256.3H-244.2V2280z M-246.6,2282.5h1943V253.8h-1943V2282.5z
	"/>
<polygon fill="none" stroke="#f9e793" points="-245.3,1944.8 1695.2,1944.8 1695.2,1942.2 -245.3,1942.2 "/>
<polygon fill="none" stroke="#f9e793" points="-245.3,1607.4 1695.2,1607.4 1695.2,1604.8 -245.3,1604.8 "/>
<polygon fill="none" stroke="#f9e793" points="-245.3,1269.4 1695.2,1269.4 1695.2,1266.9 -245.3,1266.9 "/>
<polygon fill="none" stroke="#f9e793" points="-245.3,931.6 1695.2,931.6 1695.2,929.1 -245.3,929.1 "/>
<polygon fill="none" stroke="#f9e793" points="-245.3,594.3 1695.2,594.3 1695.2,591.7 -245.3,591.7 "/>
<polygon fill="none" stroke="#f9e793" points="1370.4,2281.3 1372.8,2281.3 1372.8,255.1 1370.4,255.1 "/>
<polygon fill="none" stroke="#f9e793" points="1047.3,2281.3 1049.7,2281.3 1049.7,255.1 1047.3,255.1 "/>
<polygon fill="none" stroke="#f9e793" points="723.6,2281.3 726.1,2281.3 726.1,255.1 723.6,255.1 "/>
<polygon fill="none" stroke="#f9e793" points="400.1,2281.3 402.6,2281.3 402.6,255.1 400.1,255.1 "/>
<polygon fill="none" stroke="#f9e793" points="77,2281.3 79.5,2281.3 79.5,255.1 77,255.1 "/>
</svg>
